<svg id="visual" viewBox="0 0 900 600" width="900" height="600" xmlns="http://www.w3.org/2000/svg" xmlns:xlink="http://www.w3.org/1999/xlink" version="1.1"><rect x="0" y="0" width="900" height="600" fill="#CCCCCC"></rect><defs><linearGradient id="grad1_0" x1="33.3%" y1="100%" x2="100%" y2="0%"><stop offset="20%" stop-color="#009473" stop-opacity="1"></stop><stop offset="80%" stop-color="#009473" stop-opacity="1"></stop></linearGradient></defs><defs><linearGradient id="grad1_1" x1="33.3%" y1="100%" x2="100%" y2="0%"><stop offset="20%" stop-color="#009473" stop-opacity="1"></stop><stop offset="80%" stop-color="#cccccc" stop-opacity="1"></stop></linearGradient></defs><defs><linearGradient id="grad2_0" x1="0%" y1="100%" x2="66.7%" y2="0%"><stop offset="20%" stop-color="#009473" stop-opacity="1"></stop><stop offset="80%" stop-color="#009473" stop-opacity="1"></stop></linearGradient></defs><defs><linearGradient id="grad2_1" x1="0%" y1="100%" x2="66.7%" y2="0%"><stop offset="20%" stop-color="#cccccc" stop-opacity="1"></stop><stop offset="80%" stop-color="#009473" stop-opacity="1"></stop></linearGradient></defs><g transform="translate(900, 600)"><path d="M-378.6 0C-382.7 -56.8 -386.7 -113.6 -349.8 -144.9C-312.8 -176.1 -234.8 -181.9 -186.7 -186.7C-138.5 -191.5 -120.3 -195.4 -94.1 -227.3C-68 -259.1 -34 -318.8 0 -378.6L0 0Z" fill="#7eb19e"></path><path d="M-189.3 0C-191.3 -28.4 -193.4 -56.8 -174.9 -72.4C-156.4 -88.1 -117.4 -90.9 -93.3 -93.3C-69.3 -95.8 -60.1 -97.7 -47.1 -113.6C-34 -129.6 -17 -159.4 0 -189.3L0 0Z" fill="#009473"></path></g><g transform="translate(0, 0)"><path d="M378.6 0C378.5 54.8 378.5 109.5 349.8 144.9C321 180.3 263.6 196.3 225.6 225.6C187.6 254.9 169.1 297.5 134.7 325.2C100.4 352.9 50.2 365.8 0 378.6L0 0Z" fill="#7eb19e"></path><path d="M189.3 0C189.3 27.4 189.3 54.8 174.9 72.4C160.5 90.1 131.8 98.1 112.8 112.8C93.8 127.4 84.5 148.7 67.4 162.6C50.2 176.5 25.1 182.9 0 189.3L0 0Z" fill="#009473"></path></g></svg>